<?xml version="1.0" encoding="utf-8"?>
<!-- Generator: Adobe Illustrator 16.0.0, SVG Export Plug-In . SVG Version: 6.00 Build 0)  -->
<!DOCTYPE svg PUBLIC "-//W3C//DTD SVG 1.1//EN" "http://www.w3.org/Graphics/SVG/1.1/DTD/svg11.dtd">
<svg version="1.1" xmlns="http://www.w3.org/2000/svg" xmlns:xlink="http://www.w3.org/1999/xlink" x="0px" y="0px"
	 width="125.308px" height="120.308px" viewBox="-98.021 -21.989 125.308 120.308"
	 enable-background="new -98.021 -21.989 247.521 120.308" xml:space="preserve">
<g id="Layer_1">
	<circle fill="#FFFFFF" cx="-36.407" cy="38.159" r="60.16"/>
</g>
<g id="Layer_2">
	<path fill="#fecc5c" d="M14.475,51.637c0.115-0.439,0.218-0.882,0.323-1.325c0.083-0.354,0.169-0.712,0.245-1.07
		c0.091-0.411,0.169-0.827,0.247-1.24c0.079-0.404,0.152-0.809,0.218-1.217c0.066-0.387,0.125-0.779,0.181-1.167
		c0.063-0.454,0.12-0.907,0.171-1.364c0.042-0.358,0.085-0.716,0.12-1.079c0.049-0.528,0.085-1.063,0.122-1.597
		c0.017-0.296,0.044-0.593,0.057-0.889c0.042-0.83,0.063-1.665,0.063-2.503c0-0.009,0-0.018,0-0.027
		c0-11.81-3.888-22.711-10.455-31.493C4.757,5.315,3.684,4.014,2.551,2.768C1.42,1.521,0.228,0.329-1.018-0.803
		c-3.741-3.398-7.97-6.267-12.571-8.483c-3.067-1.479-6.3-2.668-9.664-3.533c-4.203-1.084-8.611-1.659-13.153-1.659
		c-29.066,0-52.631,23.567-52.631,52.637c0,1.005,0.036,2.004,0.091,2.996c0.012,0.22,0.036,0.435,0.05,0.656
		c0.055,0.801,0.125,1.601,0.215,2.392c0.022,0.179,0.045,0.357,0.067,0.536c0.109,0.864,0.236,1.715,0.385,2.563
		c0.016,0.095,0.033,0.19,0.052,0.286c0.813,4.497,2.191,8.796,4.071,12.818l0,0l0,0c2.219,4.752,5.121,9.117,8.588,12.967
		c0.009,0.01,0.016,0.02,0.026,0.032c9.632,10.678,23.573,17.392,39.085,17.392c24.121,0,44.438-16.236,50.658-38.373
		C14.326,52.161,14.404,51.901,14.475,51.637z M-84.345,50.885c23.89,3.247,53.05,3.723,71.044-8.37
		c3.124,3.219,11.71,9.222,23.482,12.676c-1.199,3.274-2.747,6.379-4.575,9.293c-10.254-3.551-17.516-8.826-19.903-11.287
		l-0.881-0.91l-1.05,0.707c-16.142,10.848-41.808,10.858-64.235,7.909C-82.1,57.747-83.413,54.396-84.345,50.885z M-68.077,76.305
		c17.233,2.607,35.556,2.007,50.927-6.178c2.1,1.919,5.896,4.69,10.96,7.331c-8.374,6.455-18.85,10.309-30.216,10.309
		C-48.438,87.767-59.479,83.458-68.077,76.305z M-3.583,75.304c-6.166-3.022-10.491-6.305-12.229-8.095l-0.811-0.834l-1.014,0.567
		c-16.12,9.002-36.203,8.87-54.657,5.407c-2.334-2.447-4.421-5.13-6.22-8.012c21.882,2.641,46.489,2.249,62.948-8.16
		c3.177,2.881,10.045,7.616,19.356,10.989C1.638,70.146-0.837,72.876-3.583,75.304z"/>
</g>
</svg>
